<svg xmlns="http://www.w3.org/2000/svg" width="50" height="50" enable-background="new 0 0 50 50" viewBox="0 0 50 50" id="boat">
  <path fill="#ECE8E4" d="M47,26v1c0,0.7-0.1,1.4-0.2,2c-0.9,4.6-5,8-9.8,8H3v-7c0,0,0.5-0.4,1.2-1c0.8-0.7,2-1.8,3.1-3
		c0.6-0.6,1.1-1.5,1.6-2.4c1.2-2.2,2-4.9,2-6.6H6v0c0-1.6,1.3-3,3-3H32c1.6,0,3,1.3,3,3v0l4,6v3H47z"></path>
  <path fill="#ECE8E4" d="M12,15L7.2,6.7C6.9,6.2,7.6,5.7,8,6.2l9,8.8"></path>
  <path d="M12,15L7.2,6.7C6.9,6.2,7.6,5.7,8,6.2l9,8.8" opacity=".1"></path>
  <path fill="#87C483" d="M47,26v1c0,0.7-0.1,1.4-0.2,2H4.2c0.8-0.7,2-1.8,3.1-3H39H47z"></path>
  <path fill="#7DAFE0" d="M39,23H28c-0.6,0-1-0.4-1-1v-5h8L39,23z"></path>
  <polygon fill="#FFF" points="34.2 18 28 21.4 28 18" opacity=".2"></polygon>
  <path fill="#7DAFE0" d="M24,23h-7v-2c0-2.2,1.8-4,4-4h3V23z"></path>
  <path fill="#FFF" d="M23,18v0.6l-5,2.7V21c0-1.7,1.3-3,3-3H23z" opacity=".2"></path>
  <path fill="#ECE8E4" d="M35 17L35 17 6 17v0c0-1.6 1.3-3 3-3H32C33.7 14 35 15.3 35 17zM46.8 29c-.9 4.6-5 8-9.8 8H3v-8H46.8z"></path>
  <path d="M46.8,29c-0.9,4.6-5,8-9.8,8H27c4.8,0,8.9-3.4,9.8-8H46.8z" opacity=".1"></path>
  <path fill="#7DAFE0" d="M48,36v3c0,1.7-1.4,3-3.1,3H5.1C3.4,42,2,40.7,2,39v-3c0.3,0,0.7,0,1,0c2.8,0,5.3-1.1,7.2-2.9
		c1.8,1.8,4.4,2.9,7.2,2.9s5.3-1.1,7.2-2.9c1.8,1.8,5.4,2.9,8.2,2.9s5.3-1.1,7.2-2.9c1.8,1.8,4.4,2.9,7.2,2.9C47.3,36,47.7,36,48,36
		z"></path>
  <path d="M39,25.5V26H7.3c0.6-0.6,1.1-1.5,1.6-2.4C10.6,23.8,25.1,25.5,39,25.5z" opacity=".1"></path>
</svg>
