<svg xmlns="http://www.w3.org/2000/svg" width="50" height="50" enable-background="new 0 0 50 50" viewBox="0 0 50 50" id="bowling">
  <circle cx="16" cy="32" r="13" fill="#E46047"></circle>
  <path d="M29,32c0,7.2-5.8,13-13,13c-5.8,0-10.7-3.8-12.4-9.1C5.9,37.8,8.8,39,12,39c7.2,0,13-5.8,13-13c0-1.4-0.2-2.7-0.6-3.9
		C27.2,24.5,29,28,29,32z" opacity=".1"></path>
  <circle cx="14" cy="30" r="2" fill="#4D4D4D" opacity=".8"></circle>
  <circle cx="11" cy="25" r="2" fill="#4D4D4D" opacity=".8"></circle>
  <path fill="#4D4D4D" d="M13 25c0 .2 0 .3-.1.5-.2-.9-1-1.5-1.9-1.5s-1.7.6-1.9 1.5C9 25.3 9 25.2 9 25c0-1.1.9-2 2-2S13 23.9 13 25zM16 30c0 .2 0 .3-.1.5-.2-.9-1-1.5-1.9-1.5s-1.7.6-1.9 1.5c0-.2-.1-.3-.1-.5 0-1.1.9-2 2-2S16 28.9 16 30zM19 25c0 .2 0 .3-.1.5-.2-.9-1-1.5-1.9-1.5s-1.7.6-1.9 1.5c0-.2-.1-.3-.1-.5 0-1.1.9-2 2-2S19 23.9 19 25z" opacity=".8"></path>
  <circle cx="17" cy="25" r="2" fill="#4D4D4D" opacity=".8"></circle>
  <path fill="#EDE9E5" d="M42.3,19c-0.1-0.6-0.2-1.3-0.2-2c0-0.3,0-0.7,0-1v-3c0-2,1-3,1-6s-2-5-4-5s-4,2-4,5s1,4,1,6v3
		c0,0.3,0,0.7,0,1c0,0.7-0.1,1.4-0.2,2c-0.9,4.5-3.7,6.5-3.7,14c0,9,4,14,4,14s1,1,3,1s3-1,3-1s4-5,4-14C46,25.5,43.2,23.5,42.3,19z
		"></path>
  <path fill="#FFF" d="M41.9,5.9C41.3,5.3,40.7,5,40,5c-1.4,0-3,1.5-3,4c0,1.5,0.3,2.5,0.5,3.4C37.8,13.1,38,14,38,15v3
		c0,0.4,0,0.7,0,1c0,0.7-0.1,1.4-0.3,2.2c-0.4,1.8-1,3.2-1.6,4.5C35.1,28,34,30.4,34,35c0,4.4,1,7.8,2,10.1c-1.1-2-3-6.1-3-12.1
		c0-4.6,1.1-7,2.1-9.3c0.6-1.4,1.2-2.8,1.6-4.5c0.1-0.7,0.2-1.4,0.3-2.2c0-0.3,0-0.7,0-1v-3c0-1-0.2-1.9-0.5-2.6
		C36.3,9.5,36,8.5,36,7c0-2.5,1.6-4,3-4C40.2,3,41.5,4.1,41.9,5.9z" opacity=".4"></path>
  <path d="M46,33c0,9-4,14-4,14s-1,1-3,1c-0.4,0-0.7,0-1-0.1c1.3-0.2,2-0.9,2-0.9s4-5,4-14c0-7.5-2.8-9.5-3.7-14
		c-0.1-0.6-0.2-1.3-0.2-2c0-0.3,0-0.7,0-1v-3c0-2,1-3,1-6c0-2.5-1.4-4.3-3-4.8C38.3,2.1,38.7,2,39,2c2,0,4,2,4,5s-1,4-1,6v3
		c0,0.3,0,0.7,0,1c0,0.7,0.1,1.4,0.2,2C43.2,23.5,46,25.5,46,33z" opacity=".1"></path>
  <rect width="3" height="2" x="36" y="13" fill="#E46047"></rect>
  <path fill="#E46047" d="M39,17v2h-3.3c0.1-0.6,0.2-1.3,0.2-2H39z"></path>
  <rect width="3" height="2" x="39" y="13" fill="#E46047"></rect>
  <path fill="#E46047" d="M39,17v2h3.2c-0.1-1-0.2-1.3-0.2-2H39z"></path>
</svg>
