<svg xmlns="http://www.w3.org/2000/svg" width="50" height="50" enable-background="new 0 0 50 50" viewBox="0 0 50 50" id="burger">
  <path fill="#F7C179" d="M25,23.1c-11.8,0-18,7-18,14c0,5.5,11.1,7.3,15.9,7.8c1.4,0.2,2.9,0.2,4.3,0c4.8-0.5,15.9-2.3,15.9-7.8
		C43,30.1,36.8,23.1,25,23.1z"></path>
  <path d="M43,37.1c0,5.5-11.1,7.3-15.9,7.8c-1.4,0.2-2.9,0.2-4.3,0c-4.1-0.5-13-1.9-15.3-5.8c3.6,2.4,10,3.4,13.3,3.8
		c1.4,0.2,2.9,0.2,4.3,0c4.8-0.5,15.9-2.3,15.9-7.8c0-2.7-1-5.5-2.8-7.8C41.3,29.9,43,33.5,43,37.1z" opacity=".1"></path>
  <ellipse cx="25" cy="31" fill="#8E7960" rx="19" ry="7"></ellipse>
  <path fill="#6BB678" d="M9,24.5c-2,0.9-4,2.6-2,4.4c2,1.8,4,0,6,3.5s4-1.8,7,0c3,1.8,5,4.4,9,1.8c4-2.6,6,0.9,8-3.5s5-0.9,7-4.4
		S40,21,40,21L9,24.5z"></path>
  <ellipse cx="25" cy="22" fill="#D95E46" rx="17" ry="7"></ellipse>
  <path fill="#F7C179" d="M25,5C13.2,5,7,11.4,7,17.8c0,5,11.1,6.7,15.9,7.1c1.4,0.1,2.9,0.1,4.3,0c4.8-0.5,15.9-2.1,15.9-7.1
		C43,11.4,36.8,5,25,5z"></path>
  <path d="M43,17.8c0,5-11.1,6.7-15.9,7.1c-1.4,0.1-2.9,0.1-4.3,0c-2.8-0.3-7.6-0.9-11.2-2.4c3,0.8,6.2,1.2,8.2,1.4
		c1.4,0.1,2.9,0.1,4.3,0c4.8-0.5,15.9-2.1,15.9-7.1c0-4.3-2.9-8.7-8.4-11C39.1,7.6,43,12.7,43,17.8z" opacity=".1"></path>
  <circle cx="28" cy="14" r="1" opacity=".1"></circle>
  <circle cx="15" cy="11" r="1" opacity=".1"></circle>
  <circle cx="20" cy="9" r="1" opacity=".1"></circle>
  <circle cx="23" cy="18" r="1" opacity=".1"></circle>
  <circle cx="13" cy="16" r="1" opacity=".1"></circle>
  <circle cx="36" cy="11" r="1" opacity=".1"></circle>
  <circle cx="29" cy="19" r="1" opacity=".1"></circle>
  <circle cx="37" cy="17" r="1" opacity=".1"></circle>
  <circle cx="23" cy="12" r="1" opacity=".1"></circle>
  <circle cx="31" cy="9" r="1" opacity=".1"></circle>
  <circle cx="18.5" cy="14.5" r="1.5" opacity=".1"></circle>
  <circle cx="26.5" cy="8.5" r="1.5" opacity=".1"></circle>
  <circle cx="32.5" cy="14.5" r="1.5" opacity=".1"></circle>
</svg>
