<svg xmlns="http://www.w3.org/2000/svg" width="50" height="50" enable-background="new 0 0 50 50" viewBox="0 0 50 50" id="house">
  <polygon fill="#E2E5E7" points="39 18.4 34 15.1 34 7 39 7"></polygon>
  <polygon fill="#B6BFC3" points="39 18.4 34 15.1 34 7 39 7"></polygon>
  <polygon points="39 7 39 18.5 37 17.1 37 7" opacity=".1"></polygon>
  <path fill="#E2E5E7" d="M41,18.3L25,5.9l-16,13V42c0,1.1,0.9,2,2,2h28c1.1,0,2-0.9,2-2V18.3z"></path>
  <rect width="8" height="15" x="15" y="25" fill="#C27455"></rect>
  <rect width="7" height="8" x="28" y="25" fill="#5FA3E0"></rect>
  <path d="M41,20.7v3.7l-16-13l-16,13v-3.7L24.3,8.2C24.5,8.1,24.7,8,25,8s0.5,0.1,0.7,0.2L41,20.7z" opacity=".1"></path>
  <rect width="12" height="4" x="13" y="40" fill="#B6BFC3"></rect>
  <path fill="#FFD35A" d="M22,32.7c0,0.7-0.6,1.3-1.3,1.3h-0.3c-0.7,0-1.3-0.6-1.3-1.3v-0.3c0-0.7,0.6-1.3,1.3-1.3h0.3
			c0.7,0,1.3,0.6,1.3,1.3V32.7z"></path>
  <path fill="#646464" d="M25,8.3l-18.4,15l-1.8-2.2L24.3,5.2C24.5,5.1,24.7,5,25,5s0.5,0.1,0.7,0.2l19.5,15.9l-1.8,2.2L25,8.3z"></path>
</svg>
