<svg id="Layer_6_copy" height="24" viewBox="0 0 64 64" width="24" xmlns="http://www.w3.org/2000/svg" data-name="Layer 6 copy"><path d="m6 19v28c0 7.8506 11.42 14 26 14s26-6.1494 26-14v-28z" fill="#373737"/><ellipse cx="32" cy="19" fill="#e9f4f3" rx="24" ry="14"/><path d="m32 35c-14.58 0-26-7.0283-26-16s11.42-16 26-16 26 7.0283 26 16-11.42 16-26 16zm0-28c-11.9253 0-22 5.4951-22 12s10.0747 12 22 12 22-5.4951 22-12-10.0747-12-22-12z" fill="#4d4d4d"/><ellipse cx="32" cy="18" fill="#ff640a" rx="13" ry="7"/></svg>