<svg xmlns="http://www.w3.org/2000/svg" width="50" height="50" enable-background="new 0 0 50 50" viewBox="0 0 50 50" id="martini">
  <path fill="#D2D5D7" d="M35.6,43.1c0,1.6-4.6,2.9-10.2,2.9s-10.2-1.3-10.2-2.9c0-1.3,3.1-2.5,7.3-2.8c0.9-0.1,1.9-0.1,2.9-0.1
		c1,0,2,0,2.9,0.1C32.5,40.6,35.6,41.7,35.6,43.1z"></path>
  <path d="M35.6,43.1c0,1.6-4.6,2.9-10.2,2.9c-5.2,0-9.5-1.1-10.1-2.6c1.8,0.8,5,1.4,8.7,1.4c5.7,0,10.2-1.3,10.2-2.9
		c0-0.1,0-0.3-0.1-0.4C35,41.9,35.6,42.5,35.6,43.1z" opacity=".1"></path>
  <path fill="#C3C6C8" d="M27,39V21c0-0.7-0.8-1.2-1.5-1.2S24,20.3,24,21v18c0,0,0,2-2,3c0,0,0.5,1,3.5,1s3.5-1,3.5-1
		C27,41,27,39,27,39z"></path>
  <path d="M27,26v3c-0.3,0-0.5,0-0.8,0H24v-3c0-0.7,0.8-1.2,1.5-1.2S27,25.3,27,26z" opacity=".1"></path>
  <path fill="#D2D5D7" d="M28,26.1L43.7,7.4c0.7-0.8,0.1-2-0.9-2H8.3c-1,0-1.6,1.2-0.9,2L23,26.1c0.5,0.6,1.2,0.9,1.9,0.9H26
		C26.7,27,27.6,26.7,28,26.1z"></path>
  <path fill="#9DCD95" d="M41,7l-3.3,4L26.5,24.6C26.4,24.7,26.2,25,26,25h-1.1c-0.1,0-0.2-0.3-0.3-0.4L13.3,11L10,7H41z"></path>
  <polygon fill="#FFF" points="41 7 37.7 11 13.3 11 10 7"></polygon>
  <path fill="#CBA991" d="M24.3,21c-0.2,0-0.4,0-0.5-0.2c-0.5-0.3-0.6-0.9-0.3-1.4L33,3.5c0.3-0.5,0.9-0.6,1.4-0.3
			c0.5,0.3,0.6,0.9,0.3,1.4l-9.5,15.9C25,20.8,24.7,21,24.3,21z"></path>
  <ellipse cx="28.3" cy="13.2" fill="#579957" rx="3.2" ry="3.9" transform="rotate(-34.096 28.252 13.245)"></ellipse>
</svg>
