<svg xmlns="http://www.w3.org/2000/svg" width="50" height="50" enable-background="new 0 0 50 50" viewBox="0 0 50 50" id="pint">
  <path fill="#D2D5D7" d="M39,9c0,0,0,0.3-0.2,1.1c-0.2,0.6-0.4,1.5-0.8,2.8c0,0,0,0,0,0c-2.7,9.7-0.6,21.9-0.1,24.5
		c0.1,0.4,0.1,0.7,0.1,1.1V45c0,1.1-0.9,2-2,2H14c-1.1,0-2-0.9-2-2v-6.4c0-0.4,0-0.8,0.1-1.1c0.5-2.5,2.2-13,0.4-22.3
		c-0.1-0.7-0.3-1.5-0.5-2.2c-1-3-1-4-1-4H39z"></path>
  <path fill="#DDAB66" d="M36.5,11c-0.1,0.4-0.2,0.8-0.4,1.4l0,0.1c-2.9,10.7-0.5,23.8-0.1,25.7V44c0,0.6-0.4,1-1,1H15
		c-0.6,0-1-0.4-1-1v-5.8c0.4-1.9,2.8-15-0.1-25.7l0-0.1c-0.2-0.5-0.3-1-0.4-1.4H36.5z"></path>
  <path fill="#DDAB66" d="M36.5,11c-0.1,0.4-0.2,0.8-0.4,1.4l0,0.1c-0.4,1.5-0.7,3-0.9,4.5c-1.1,7.5-0.2,15.2,0.5,19H14.4
		c0.6-3.8,1.5-11.5,0.5-19c-0.2-1.5-0.5-3-0.9-4.5l0-0.1c-0.2-0.5-0.3-1-0.4-1.4H36.5z"></path>
  <path fill="#FBE7DA" d="M36.5,11c-0.1,0.4-0.2,0.8-0.4,1.4l0,0.1c-0.4,1.5-0.7,3-0.9,4.5H14.8c-0.2-1.5-0.5-3-0.9-4.5l0-0.1
		c-0.2-0.5-0.3-1-0.4-1.4H36.5z"></path>
  <path d="M39,9c0,0,0,0.3-0.2,1.1c-0.2,0.6-0.4,1.5-0.8,2.8c0,0,0,0,0,0c-2.7,9.7-0.6,21.9-0.1,24.5c0.1,0.4,0.1,0.7,0.1,1.1V45
		c0,1.1-0.9,2-2,2H14c-1.1,0-2-0.9-2-2h18c1.1,0,2-0.9,2-2v-7c0,0-3-14,0-25c0,0,0,0,0,0c0.3-0.8,0.4-1.4,0.6-2H39z" opacity=".1"></path>
  <path fill="#FFF" d="M14,38c0,0,3-14,0-25c0,0,0,0,0,0c-0.4-1.3-0.7-2.2-0.8-2.8C13,9.3,13,9,13,9h6.4c0.1,1,0.3,1.2,0.6,2
		c0,0,0,0,0,0c3,11,0,25,0,25v7c0,1.1,0.9,2,2,2h-7c-0.6,0-1-0.4-1-1V38z" opacity=".3"></path>
  <path d="M38.8,10.1C38.7,9.8,38.4,9.4,38,9H11c0,0,0,1,1,4c0.2,0.7,0.4,1.4,0.5,2.2C14,15.5,14.1,13,15,13c1,0,1,1,2,2s0,2,2,3
		s3-4,6-3s4,1,6-1s2,1,5,0c0.8-0.3,1.5-0.6,2-1.1L38.8,10.1z" opacity=".1"></path>
  <path fill="#FBE7DA" d="M10.1,7.6C8.3,9,9,12.3,11.1,13.2s2.1-1.9,3.2-1.9s1.1,0.9,2.1,1.9s0,1.9,2.1,2.8c2.1,0.9,3.2-3.7,6.4-2.8
		s4.3,0.9,6.4-0.9s2.1,0.9,5.3,0c3.2-0.9,4.3-2.8,2.1-4.6C36.8,5.8,21.8-1.6,10.1,7.6z"></path>
  <path d="M36.8 12.3c-1.3.4-2.1.1-2.7-.2 2.8-1 3.7-2.7 1.6-4.5C34.5 6.6 28.8 3.6 22 3.1c8.2-.5 15.5 3.3 17 4.5C41.1 9.5 40 11.4 36.8 12.3zM35 45H15c-.6 0-1-.4-1-1v-1c0-.6.4-1 1-1h20c.6 0 1 .4 1 1v1C36 44.6 35.6 45 35 45z" opacity=".1"></path>
  <circle cx="22" cy="22" r="1" opacity=".1"></circle>
  <circle cx="25" cy="25" r="1" opacity=".1"></circle>
  <circle cx="30" cy="26" r="1" opacity=".1"></circle>
  <circle cx="32" cy="19" r="1" opacity=".1"></circle>
  <circle cx="31" cy="33" r="1" opacity=".1"></circle>
  <circle cx="25" cy="20" r="1" opacity=".1"></circle>
  <circle cx="18" cy="20" r="1" opacity=".1"></circle>
  <circle cx="18" cy="24" r="1" opacity=".1"></circle>
  <circle cx="25" cy="29" r="1" opacity=".1"></circle>
  <circle cx="19" cy="32" r="1" opacity=".1"></circle>
  <circle cx="23" cy="35" r="1" opacity=".1"></circle>
  <circle cx="20.5" cy="27.5" r="1.5" opacity=".1"></circle>
  <circle cx="28.5" cy="21.5" r="1.5" opacity=".1"></circle>
</svg>
