<svg xmlns="http://www.w3.org/2000/svg" width="50" height="50" enable-background="new 0 0 50 50" viewBox="0 0 50 50" id="pizza">
  <path fill="#F7C179" d="M44.1,27.8c-0.8,0.1-2.1,0.5-3.7,1.1c-0.3,0.1-0.6,0.2-0.9,0.4c-2.3,1-5.2,2.3-8.4,3.8
		c-1.9,0.9-3.9,1.9-5.8,2.9C15.7,40.7,6,45.5,5,44.3C3.2,42.5,12.7,22.1,15,14.9c0-0.2,0.1-0.3,0.1-0.5c0.3-0.8,0.4-1.5,0.5-1.8
		l20.4,7.5C36.1,20.1,50.1,27.2,44.1,27.8z"></path>
  <path fill="#D95E46" d="M44.1,27.8c-0.8,0.1-2.1,0.5-3.7,1.1c-0.9-0.7-2.1-1.2-3.5-1.6c-3.7-0.9-4-5.9-8.2-5.7
		c-4.2,0.2-5.1-3.2-10.4-5.6c-1.4-0.6-2.4-1.1-3-1.5c0.3-0.8,0.4-1.5,0.5-1.8l20.4,7.5C36.1,20.1,50.1,27.2,44.1,27.8z"></path>
  <path d="M44.1,27.9c-0.8,0.1-2.1,0.4-3.7,1c-0.3,0.1-0.6,0.2-0.9,0.3c-2.3,1-5.2,2.3-8.4,3.8c-1.9,0.9-3.9,1.9-5.8,2.8
		C15.7,40.7,6,45.5,5,44.3c-0.3-0.3-0.3-1,0-2.1c0,0,0,0.1,0,0.1c1.1,1.2,10.7-3.7,20.3-8.4c2-1,4-2,5.8-2.9c3.1-1.5,6-2.9,8.4-3.8
		c0.3-0.1,0.6-0.3,0.9-0.4c1.6-0.6,2.9-0.8,3.7-0.9c0.3,0,0.5,0.1,0.7,0.1c0,0,0,0,0,0C45.9,27,46,27.8,44.1,27.9z" opacity=".1"></path>
  <path fill="#CBA991" d="M46.1,26.9c-0.1,0-0.1,0.1-0.2,0.1c-1.3,0.8-2.7,0.9-4.1,0.5c-0.4-0.1-0.9-0.3-1.3-0.5
		c-0.1-0.1-0.2-0.1-0.3-0.2c0,0,0,0,0,0c-1.4-0.7-2.8-1.9-4.5-3.3c-4.8-4.2-20.1-10.4-20.1-10.4c-1-0.6-1.2-1.6-0.8-2.3
		c1.2-2.4,5.6-5.4,11-2.8c6.9,3.3,11.8,5.5,17.6,9.8C49,22.1,49,25.1,46.1,26.9z"></path>
  <path d="M43.3,18c-5.8-4.3-10.7-6.5-17.6-9.8c-3.4-1.7-6.4-1-8.5,0.2c1.8-0.5,4-0.5,6.5,0.7c6.9,3.3,11.8,5.5,17.6,9.8
		c0.9,0.7,1.7,1.3,2.4,2c-1.1,0.4-4.6,1.9-3.5,6.1c0,0,0,0,0,0c0.6,0.3,1.1,0.5,1.7,0.7l-0.2-0.1c-0.5-0.6-1.1-3.2,0.7-5
		c0.9-0.9,2.5-0.6,3.1,0.6c1.1,2,0.5,3.5-1.2,4.7c0.6-0.1,1.1-0.3,1.7-0.7C49,25.2,49.1,22.2,43.3,18z" opacity=".1"></path>
  <ellipse cx="17.5" cy="21" fill="#D95E46" rx="3.5" ry="3"></ellipse>
  <ellipse cx="28.5" cy="26" fill="#D95E46" rx="3.5" ry="3"></ellipse>
  <ellipse cx="16.5" cy="32" fill="#D95E46" rx="3.5" ry="3"></ellipse>
  <path fill="#6BB678" d="M12 27c0 0 1-4 7-1l0 0C19 26 15 29 12 27zM21.8 24.8c0 0 4 1 1 7l0 0C22.8 31.8 19.8 27.8 21.8 24.8zM10.2 38.8c0 0-3.5-2.1 1.1-7l0 0C11.3 31.9 12.9 36.6 10.2 38.8z"></path>
  <ellipse cx="38" cy="19.4" opacity=".1" rx="1" ry=".6" transform="rotate(-54.121 37.999 19.374)"></ellipse>
  <ellipse cx="21" cy="12.4" opacity=".1" rx="1" ry=".6" transform="rotate(-54.121 21 12.374)"></ellipse>
  <ellipse cx="25.4" cy="15" opacity=".1" rx="1.4" ry="1" transform="rotate(-50.441 25.437 15)"></ellipse>
  <ellipse cx="33.2" cy="17.8" opacity=".1" rx="1.4" ry=".7" transform="rotate(-50.441 33.206 17.808)"></ellipse>
  <ellipse cx="29.2" cy="14.8" opacity=".1" rx="1.4" ry=".7" transform="rotate(-50.441 29.206 14.808)"></ellipse>
  <ellipse cx="18.2" cy="10.8" opacity=".1" rx="1.4" ry=".7" transform="rotate(-50.441 18.206 10.809)"></ellipse>
  <ellipse cx="36.9" cy="22.2" opacity=".1" rx=".9" ry=".7" transform="rotate(-50.441 36.894 22.185)"></ellipse>
  <ellipse cx="43.9" cy="24.2" opacity=".1" rx=".9" ry=".7" transform="rotate(-50.441 43.894 24.185)"></ellipse>
</svg>
