<svg xmlns="http://www.w3.org/2000/svg" width="50" height="50" enable-background="new 0 0 50 50" viewBox="0 0 50 50" id="popchampagnebottle">
  <path fill="#E6C295" d="M35.3,16.2c0,0,0.6,0.6,0,1.2c-0.6,0.6-1.2,0-1.2,0L33,18.5c-3.5,3.5-4.6,6.1-5.5,8.4
		c-0.5-0.2-0.9-0.4-1.3-0.7c-0.9-0.5-1.7-1.2-2.5-1.9c-0.4-0.4-0.7-0.8-1-1.2c-0.3-0.4-0.6-0.8-0.9-1.3c-0.3-0.4-0.5-0.9-0.7-1.3
		c2.3-0.9,4.9-2,8.4-5.5l1.2-1.2c0,0-0.6-0.6,0-1.2c0.6-0.6,1.2,0,1.2,0l0-0.1l0.1-0.1c0.6-0.6,1.7-0.6,2.3,0l1.2,1.2l0,0
		c0.6,0.6,0.6,1.6,0,2.3l1-1l-1,1L35.3,16.2L35.3,16.2z"></path>
  <path fill="#335943" d="M23.7,33.7L12,45.3c-1,1-2.5,1-3.5,0l-5.8-5.8c-1-1-1-2.5,0-3.5l11.6-11.6c2.3-2.3,4.4-2.9,6.7-3.8
		c0.6,1.4,1.5,2.7,2.6,3.8c1.1,1.1,2.4,2,3.8,2.6C26.6,29.3,26,31.3,23.7,33.7z"></path>
  <path fill="#579957" d="M3.9,38.3c-0.3-0.3-0.3-0.8,0-1.2l11.6-11.6c1.6-1.6,3.1-2.3,4.8-2.9c0.6,1.1,1.4,2,2.2,2.9
		c0.9,0.9,1.8,1.6,2.9,2.2c-0.6,1.7-1.3,3.1-2.9,4.8L10.9,44.1c-0.3,0.3-0.8,0.3-1.2,0L3.9,38.3z" opacity=".7"></path>
  <rect width="10.7" height="9.9" x="8.1" y="29.6" fill="#E6C295" transform="rotate(134.999 13.474 34.526)"></rect>
  <rect width="7.4" height="9.9" x="9.8" y="29.6" fill="#E1DDD9" transform="rotate(134.999 13.474 34.526)"></rect>
  <path d="M35.3,16.2c0,0,0.6,0.6,0,1.2c-0.6,0.6-1.2,0-1.2,0L33,18.5c-3.5,3.5-4.6,6.1-5.5,8.4c-0.9,2.3-1.5,4.4-3.8,6.7L12,45.3
		c-1,1-2.5,1-3.5,0l-1.2-1.2c1,1,2.5,1,3.5,0l11.7-11.6c2.2-2.2,2.8-4.1,3.6-6.2c0-0.2,0.1-0.3,0.2-0.5c0.9-2.3,2-4.9,5.5-8.4
		l1.2-1.2l1.2-1.2l0-0.1l1.1-1.1c0,0,0.1-0.1,0.1-0.1c0,0,0,0,0,0l0,0c0.6,0.6,0.6,1.6,0,2.3c0,0,0,0,0,0L35.3,16.2L35.3,16.2z" opacity=".1"></path>
  <path fill="#FFF" d="M35.4,13.7C35.4,13.7,35.4,13.7,35.4,13.7c-0.1,0.1-0.1,0.2-0.1,0.2L34.2,15l0,0.1L33,16.2l-1.2,1.2
		c-3.5,3.5-6.1,4.7-8.4,5.5c-0.2,0.1-0.3,0.1-0.5,0.2c-0.1,0-0.2,0.1-0.3,0.1c-2,0.7-3.9,1.4-6,3.5L5,38.3c-1,1-1,2.5,0,3.5
		l-1.2-1.2c-1-1-1-2.5,0-3.5l11.6-11.6c2.2-2.2,4.1-2.8,6.3-3.6c0.1-0.1,0.3-0.1,0.5-0.2c2.3-0.9,4.9-2,8.4-5.5l1.2-1.2
		c0,0-0.6-0.6,0-1.2s1.2,0,1.2,0l0.1,0l1.1-1.1c0.1-0.1,0.1-0.1,0.2-0.1L35.4,13.7z" opacity=".2"></path>
  <path fill="#579957" d="M35.5,16C35.5,16,35.5,16,35.5,16l-0.1,0.2L34.2,15L33,13.8l-1.2-1.2l0.1-0.1c0.6-0.6,1.7-0.6,2.3,0
			l1.2,1.2l0,0C36.1,14.3,36.1,15.3,35.5,16z" opacity=".7"></path>
  <path fill="#335943" d="M35.5,16C35.5,16,35.5,16,35.5,16l-0.1,0.2L34.2,15L33,13.8l-1.2-1.2l0.1-0.1c0.6-0.6,1.7-0.6,2.3,0
			l1.2,1.2l0,0C36.1,14.3,36.1,15.3,35.5,16z"></path>
  <path fill="#CBA991" d="M42.8,8L40,10.8c-0.4,0.4-1,0.4-1.4,0l-1.4-1.4c-0.4-0.4-0.4-1,0-1.4L40,5.2c0.4-0.4,1-0.4,1.4,0l1.4,1.4
			C43.2,7,43.2,7.5,42.8,8C42.9,8,42.8,8,42.8,8z"></path>
  <circle cx="40.9" cy="8.2" r=".6" opacity=".1"></circle>
  <circle cx="41.2" cy="6.4" r=".6" opacity=".1"></circle>
  <path d="M42.8 8l-.8.8c-.2-.2-.2-.6 0-.8C42.3 7.7 42.7 7.7 42.8 8 42.9 8 42.8 8 42.8 8zM40.1 6.4c-.2.2-.6.2-.8 0-.1-.1-.1-.2-.2-.3l.7-.7c.1 0 .2.1.3.2C40.3 5.8 40.3 6.2 40.1 6.4z" opacity=".1"></path>
  <circle cx="39.7" cy="9.6" r=".6" opacity=".1"></circle>
  <circle cx="39.1" cy="7.8" r=".6" opacity=".1"></circle>
  <path d="M38.2,10.3c0,0-0.1,0.1-0.1,0.1l-0.8-0.8c0,0,0-0.1,0.1-0.1c0.2-0.2,0.6-0.2,0.8,0C38.5,9.6,38.4,10,38.2,10.3z" opacity=".1"></path>
  <g>
    <path fill="#E6C295" d="M33.8,10.8c-0.4-1.2-0.9-2.3-2.2-3.3c-1.4-1-3.4-1.6-5.2-2.3c0.2-0.3,1.6-0.4,2.2-0.3
		c0.3,0,0.7,0.1,1.1,0.2c0.4,0.1,0.7,0.2,1.1,0.4c2.7,1.1,3.2,3.5,3.1,5.3L33.8,10.8z"></path>
  </g>
  <g>
    <path fill="#E6C295" d="M34.8,10.2c0.4-1,0.8-1.9,0.8-2.9c0-1.1-0.4-1.9-0.7-2.8c0.3-0.2,0.7,0.1,0.9,0.3C36,5,36.1,5.1,36.2,5.2
		c0.1,0.2,0.1,0.3,0.2,0.5C36.8,7.1,35.8,9,34.8,10.2L34.8,10.2z"></path>
  </g>
  <g>
    <path fill="#E6C295" d="M36.9,14c1,0.4,1.9,0.8,2.6,1.7c0.7,0.9,1,2,1.4,3c0.3-0.1,0.5-0.8,0.4-1.1c0-0.2,0-0.4,0-0.6
		c-0.1-0.2-0.1-0.4-0.2-0.6C40.4,14.8,38.4,14.2,36.9,14L36.9,14z"></path>
  </g>
  <g>
    <path fill="#E6C295" d="M37.5,12.9c1.9-0.5,3.8-0.8,5.6-0.5c1.9,0.3,3.4,1.4,5,2.2c0.4-0.4,0-1.4-0.3-1.8c-0.2-0.2-0.3-0.5-0.6-0.7
		c-0.3-0.2-0.6-0.4-0.9-0.5c-2.4-1.2-6.2-0.1-8.8,1.2L37.5,12.9z"></path>
  </g>
</svg>
