<svg id="Layer_1" enable-background="new 0 0 512 512" height="24" viewBox="0 0 512 512" width="24" xmlns="http://www.w3.org/2000/svg"><g id="XMLID_1_"><g id="XMLID_2259_"><g id="XMLID_1352_"><path id="XMLID_1349_" d="m367 507h-362l50-432h262z" fill="#d84861"/><path id="XMLID_2005_" d="m367 507-50-432h-262l-50 432zm-299.6-422h240.7l47.7 412h-239.6z" fill="#e17084"/><g id="XMLID_1353_"><path id="XMLID_1998_" d="m251 125h-10v-60c0-30.3-24.7-55-55-55s-55 24.7-55 55v60h-10v-60c0-35.8 29.2-65 65-65s65 29.2 65 65z" fill="#ffcb5c"/></g><path id="XMLID_1351_" d="m55 75-50 432h100z" fill="#d84861"/><path id="XMLID_1997_" d="m55 75v432h50z" fill="#c12944"/><path id="XMLID_1350_" d="m55 457-50 50h100z" fill="#e17084"/></g><g id="XMLID_1897_"><path id="XMLID_1896_" d="m507 507h-362l50-320h262z" fill="#ef917b"/><path id="XMLID_1893_" d="m507 507-50-320h-262l-50 320zm-298.8-310h240.2l46.9 300h-238.6z" fill="#f5b7a9"/><path id="XMLID_1892_" d="m195 187-50 320h100z" fill="#ef917b"/><path id="XMLID_1890_" d="m195 187v320h50z" fill="#e96b4e"/><path id="XMLID_1889_" d="m195 457-50 50h100z" fill="#f5b7a9"/><g id="XMLID_1358_"><path id="XMLID_1355_" d="m391 237h-10v-60c0-30.3-24.7-55-55-55s-55 24.7-55 55v60h-10v-60c0-35.8 29.2-65 65-65s65 29.2 65 65z" fill="#2b6e37"/></g></g></g></g></svg>