<svg xmlns="http://www.w3.org/2000/svg" width="50" height="50" enable-background="new 0 0 50 50" viewBox="0 0 50 50" id="weightlifting">
  <path fill="#646464" d="M18,27H4c-1.1,0-2-0.9-2-2v0c0-1.1,0.9-2,2-2h14V27z"></path>
  <path d="M2,25.1L2,25.1C2,26.2,2.9,27,4,27h5c0.5,0,1-0.4,1-0.9V25H4c-0.8,0-1.4-0.3-1.8-0.9C2.1,24.3,2,24.8,2,25.1z" opacity=".1"></path>
  <ellipse cx="16" cy="25" fill="#BDC2C5" rx="5" ry="16"></ellipse>
  <path fill="#BDC2C5" d="M11,9L11,9c-3,0-5,7.2-5,16c0,8.8,2,16,5,16v0h5V9H11z"></path>
  <ellipse cx="16" cy="25" opacity=".15" rx="5" ry="16"></ellipse>
  <path fill="#FFF" d="M16,9L16,9L16,9c-0.7,0-1.3,0-1.9,1H12v0.2c-3,0-5,7.1-5,16c0,6.3,1,11.7,2.7,14.3C7.4,38.7,6,32.4,6,25
		c0-8.8,2-16,5-16v0H16z" opacity=".4"></path>
  <path d="M21,26.7c-0.3,8-2.4,14.3-5,14.3c-2.8,0-5.1-7.1-5.1-16c0-3.6,0.4-6.9,1-9.6c0,0.5,0,1.1,0,1.6c0,8.8,2.3,16,5.1,16
		C18.6,33,20,30.5,21,26.7z" opacity=".1"></path>
  <path fill="#646464" d="M34,27H17c-0.6,0-1-0.4-1-1v-2c0-0.6,0.4-1,1-1h17V27z"></path>
  <path d="M34,23v4H17c-0.5,0-1-0.5-1-1v-1h17v-2H34z" opacity=".1"></path>
  <path fill="#646464" d="M37.5,23h3.2c1.1,0,2,0.9,2,2v0c0,1.1-0.9,2-2,2h-3.2V23z"></path>
  <ellipse cx="41" cy="25" fill="#BDC2C5" rx="5" ry="16"></ellipse>
  <path fill="#BDC2C5" d="M36,9L36,9c-3,0-5,7.2-5,16c0,8.8,2,16,5,16v0h5V9H36z"></path>
  <ellipse cx="41" cy="25" opacity=".15" rx="5" ry="16"></ellipse>
  <path d="M46,26.7c-0.3,8-2.4,14.3-5,14.3c-2.8,0-5.1-7.1-5.1-16c0-3.6,0.4-6.9,1-9.6c0,0.5,0,1.1,0,1.6c0,8.8,2.3,16,5.1,16
		C43.6,33,45,30.5,46,26.7z" opacity=".1"></path>
  <path fill="#646464" d="M42,23h5c1.1,0,2,0.9,2,2v0c0,1.1-0.9,2-2,2h-5c-0.6,0-1-0.4-1-1v-2C41,23.4,41.4,23,42,23z"></path>
  <path d="M49,25.1L49,25.1c0,1.1-0.9,1.9-2,1.9h-5c-0.5,0-1-0.4-1-0.9V25h6c0.8,0,1.4-0.3,1.8-0.9C48.9,24.3,49,24.8,49,25.1z" opacity=".1"></path>
  <path fill="#FFF" d="M41,9L41,9L41,9c-0.7,0-1.3,0-1.9,1H37v0.2c-3,0-5,7.1-5,16c0,6.3,1,11.7,2.7,14.3c-2.3-1.8-3.7-8-3.7-15.5
		c0-8.8,2-16,5-16v0H41z" opacity=".4"></path>
</svg>
