<svg xmlns="http://www.w3.org/2000/svg" width="50" height="50" enable-background="new 0 0 50 50" viewBox="0 0 50 50" id="yoga">
  <circle cx="25.7" cy="7.6" r="1.6" fill="#826454"></circle>
  <circle cx="25.7" cy="7.6" r="1.6" opacity=".1"></circle>
  <path fill="#D8A97D" d="M25.7,4.2l-8.3,5.9l3.9,5.3l1.2,1.4L21,18.9l-0.2,0.4c-0.3-0.2-1-0.5-1.6-1.1c-1.5-1.6-3.3-5.2-4-7.1
		c-0.3-0.8-0.5-1.4-0.3-1.8C15.7,7.6,24,3.3,24,3.3V0.8C24,0.4,24.4,0,24.8,0l0,0c0.4,0,0.8,0.4,0.8,0.8V4.2z"></path>
  <path fill="#D8A97D" d="M30.8,19.3L29,16.8l5-6.7l-6.9-5.5l-1.6-0.4l0-3.3c0-0.3,0.1-0.5,0.4-0.7C26.2,0,26.3,0,26.5,0
		c0.5,0,0.8,0.4,0.8,0.8v2.5c0,0,8.4,4.3,9.2,5.9C37.4,10.9,32.4,18.4,30.8,19.3z"></path>
  <path d="M30.8,19.3l-0.7-0.9c1.8-1.2,6.4-8.3,5.6-9.9c0,0,0-0.1-0.1-0.1c0.5,0.4,0.8,0.7,0.9,1C37.4,10.9,32.4,18.5,30.8,19.3z" opacity=".1"></path>
  <rect width="3.7" height="5" x="23.6" y="15" fill="#D8A97D"></rect>
  <path fill="#5FA3E0" d="M37.8,50H10.2c-0.6,0-1-0.6-0.8-1.1l2.7-6.7c0.1-0.3,0.4-0.5,0.8-0.5h22.2c0.3,0,0.6,0.2,0.8,0.5l1.6,4
		l1.1,2.7C38.8,49.4,38.4,50,37.8,50z"></path>
  <path d="M37.8,50h-7.3l-4.9-1.7l1.3-3l10.5,0.8l1.1,2.7C38.8,49.4,38.4,50,37.8,50z" opacity=".1"></path>
  <path fill="#D8A97D" d="M24.5,45.3c-0.9,1-1.4,3,1.1,3s2.5-1.7,0.8-3.3"></path>
  <path fill="#515151" d="M24,45.8V31.7c0,0-2.4-0.1-5.8,1.7c0,0,1.7,2.5,4.2,2.5l-0.2,2.6c0,0-7-2-9-6c-0.8-1.7,8-5.5,8-5.5l8.7,0.5
		c1.4,2.3-2.5,10.8-2.5,18.3"></path>
  <path d="M27.3,45.8h-1.7c0-7.5,3.9-16,2.5-18.3L21,27.1c0.1,0,0.1-0.1,0.1-0.1l8.7,0.5C31.2,29.8,27.3,38.3,27.3,45.8z" opacity=".1"></path>
  <path fill="#D8A97D" d="M21.5,38.3c0,0,0.6,1.4,0.8,2.7c0.1,0.4,0.4,0.7,0.8,0.7h0.1c0.5,0,0.8-0.2,0.8-0.7v-4.4
		c0-0.5-0.4-0.7-0.8-0.7h-1.7V38.3z"></path>
  <path fill="#E46047" d="M30,27.3c0.3,1.1-1.1,2.1-4.6,0.7c-3.5-1.4-4.3-0.9-5.6,0.2c-1.2,1.1,0.3-1.4,1.1-4c0,0,0-0.1,0-0.1
		c0.7-2.8-1.8-6-1.8-6s0.1,0,0.2,0c0.2-0.1,0.4-0.2,0.7-0.4c0.5-0.4,1.1-1,1.2-2.3c0,0,0,0,0-0.1l0.2,0.1c0,0,3,1.7,3.6,3.3
		c0.1,0.4,0.6,0.4,0.8,0c0.5-1.3,2.3-2.7,3.8-3c0.3,0,0.4-0.1,0.4-0.1c0,0.3-0.5,3,1.5,3.1C29.8,20.2,28.2,19.6,30,27.3z"></path>
  <path d="M30,27.3c0.3,1.1-1.1,2.1-4.6,0.7c-3.5-1.4-4.3-0.9-5.6,0.2C19,28.9,19.4,28,20,26.6c0.9-0.5,2.1-0.4,4.5,0.6
		c3.5,1.4,4.9,0.4,4.6-0.7c-1.7-7.2-0.3-7.1,1.2-8.3c0.2,0.3,0.6,0.5,1.1,0.6C29.8,20.2,28.2,19.6,30,27.3z" opacity=".1"></path>
  <path fill="#D8A97D" d="M29,12.1c0,2.1-1.7,3.8-3.8,3.8s-3.8-1.7-3.8-3.8c0-0.1,0-0.3,0-0.5c0.1-0.8,0.4-1.5,0.9-2
		c0.2-0.3,0.5-0.5,0.8-0.7c0.6-0.4,1.3-0.6,2-0.6c1.8,0,3.3,1.2,3.7,2.9C29,11.5,29,11.8,29,12.1z"></path>
  <path d="M29,12.1c0,2.1-1.7,3.8-3.8,3.8c-1.2,0-2.4-0.6-3-1.5c0.6,0.4,1.4,0.7,2.2,0.7c2.1,0,3.8-1.7,3.8-3.8c0-0.3,0-0.6-0.1-0.9
		c-0.1-0.5-0.3-0.9-0.6-1.3c0.7,0.5,1.2,1.3,1.4,2.2C29,11.5,29,11.8,29,12.1z" opacity=".1"></path>
  <path d="M29,11.2c0,0.3,0,0.6-0.1,0.8c0,0,0,0,0,0c-0.4-1.7-1.9-2.9-3.7-2.9c-0.8,0-1.5,0.2-2,0.6c-0.3,0.2-0.5,0.4-0.8,0.7
		c-0.4,0.5-0.7,1-0.8,1.6c-0.1-0.3-0.1-0.6-0.1-0.8c0-0.1,0-0.3,0-0.5c0.1-0.8,0.4-1.5,0.9-2c0.2-0.3,0.5-0.5,0.8-0.7
		c0.6-0.4,1.3-0.6,2-0.6c1.8,0,3.3,1.2,3.7,2.9C29,10.7,29,11,29,11.2z" opacity=".1"></path>
  <path fill="#826454" d="M29,11.2c0,0.3,0,0.6-0.1,0.8c0,0,0,0,0,0c-0.4-1.7-1.9-2.9-3.7-2.9c-0.8,0-1.5,0.2-2,0.6
		c-0.3,0.2-0.5,0.4-0.8,0.7c-0.4,0.5-0.7,1-0.8,1.6c-0.1-0.3-0.1-0.6-0.1-0.8c0-0.1,0-0.3,0-0.5c0.1-0.8,0.4-1.5,0.9-2
		c0.2-0.3,0.5-0.5,0.8-0.7c0.6-0.4,1.3-0.6,2-0.6c1.8,0,3.3,1.2,3.7,2.9C29,10.7,29,11,29,11.2z"></path>
  <path d="M19.7 17.9c1.1 1.8 1.9 4.1 1.3 5.8 0 .1-.1.3-.1.4.7-2.8-1.8-6-1.8-6s-.1.1 0 0c-1.5-1.6-3.2-5.2-4-7.1l.1 0C15.2 11 18.2 16.7 19.7 17.9M27.2 4.6l-1.6-.4 0-3.3c0-.3.1-.5.4-.7l0 .1c0 0 0 2.5 1.1 4.2C27.1 4.5 27.2 4.5 27.2 4.6z" opacity=".1"></path>
</svg>
